<?xml version="1.0" encoding="utf-8"?>
<!-- Generator: Adobe Illustrator 16.0.0, SVG Export Plug-In . SVG Version: 6.00 Build 0)  -->
<!DOCTYPE svg PUBLIC "-//W3C//DTD SVG 1.1//EN" "http://www.w3.org/Graphics/SVG/1.1/DTD/svg11.dtd">
<svg version="1.1" id="Layer_1" xmlns="http://www.w3.org/2000/svg" xmlns:xlink="http://www.w3.org/1999/xlink" x="0px" y="0px"
	 width="195px" height="41px" viewBox="0 0 195 41" enable-background="new 0 0 195 41" xml:space="preserve">
<g>
	<defs>
		<rect id="SVGID_1_" x="-0.244" y="0.118" width="195" height="41"/>
	</defs>
	<clipPath id="SVGID_2_">
		<use xlink:href="#SVGID_1_"  overflow="visible"/>
	</clipPath>
	<path clip-path="url(#SVGID_2_)" fill="#010202" d="M53.933,24.698l-1.095,2.715c-0.167,0.446-0.448,1.37-0.448,1.762
		c0,0.896,0.644,1.734,2.023,1.734v0.616H48.88v-0.616c0.786-0.028,1.938-0.502,2.667-2.21l6.68-15.978h0.534l6.823,16.091
		c0.422,0.979,1.011,2.097,2.499,2.097v0.616h-7.33v-0.616c1.322,0,2.305,0.028,2.305-1.007c0-0.308-0.17-0.7-0.367-1.146
		l-1.684-4.058H53.933z M60.754,24.084l-3.284-7.892l-3.256,7.892H60.754z"/>
	<path clip-path="url(#SVGID_2_)" fill="#010202" d="M86.369,13v0.617c-2.724,0.195-2.724,1.624-2.724,3.917v6.156
		c0,2.435,0,3.637-0.729,4.981c-0.985,1.791-3.256,3.189-6.794,3.189c-3.845,0-5.671-1.65-6.402-2.714
		c-0.926-1.371-0.926-2.658-0.926-5.792v-5.68c0-3.75-0.028-4.058-2.499-4.058h-0.421V13h8.48v0.617c-2.781,0-2.865,0-2.865,4.001
		v5.821c0,2.656,0,4.143,0.702,5.316c0.646,1.091,2.133,2.182,4.577,2.182c1.851,0,4.211-0.644,5.418-2.518
		c0.785-1.204,0.785-2.491,0.785-4.842v-6.295c0-2.239,0-3.471-2.838-3.666V13H86.369z"/>
	<path clip-path="url(#SVGID_2_)" fill="#010202" d="M95.383,12.806c4.073,0,6.318,0.868,8.032,2.323
		c2.554,2.154,3.03,5.233,3.03,7.301c0,1.57-0.336,4.928-2.864,7.054c-2.441,2.069-5.473,2.043-8.225,2.043h-8.255v-0.617h0.757
		c2.388,0,2.388-0.614,2.388-4.196v-8.955c0-3.749-0.054-3.974-2.529-3.974h-0.531v-0.642C89.74,12.973,92.183,12.806,95.383,12.806
		 M92.94,25.902c0,4.868-0.025,4.979,2.922,4.979c1.318,0,3.365-0.057,4.91-1.258c2.248-1.736,2.667-4.786,2.667-6.996
		c0-1.765-0.279-4.366-1.738-6.435c-1.938-2.744-5.027-2.717-6.486-2.717c-0.955,0-1.655,0.031-2.275,0.058V25.902z"/>
	<path clip-path="url(#SVGID_2_)" fill="#010202" d="M123.183,25.762l-0.395,5.764h-15.383v-0.616h0.363
		c2.415,0,2.415-0.615,2.415-4.197v-9.094c0-3.666-0.026-4-2.415-4v-0.616h13.309l0.422,4.617h-0.645c-0.898-3.945-2.248-4-5.39-4
		h-2.585v7.807h1.991c2.612,0,2.781-0.644,2.781-2.799h0.645v6.354h-0.645c0-2.8-0.617-2.941-2.751-2.941h-2.021v4.394
		c0,4.256,0.168,4.478,2.721,4.478h1.377c1.572,0,4.323,0,5.558-5.147H123.183z"/>
	<path clip-path="url(#SVGID_2_)" fill="#010202" d="M127.781,14.513v13.264c0,1.958,0.394,3.05,3.258,3.133v0.617h-6.936v-0.617
		c3.173-0.222,3.006-1.483,3.006-3.133V17.619c0-3.75-0.198-4.001-2.755-4.001V13h5.478l11.005,14.582V16.416
		c0-1.568-0.198-2.772-3.174-2.798V13h6.736v0.617c-2.721,0.251-2.889,1.259-2.889,2.995v15.333h-0.592L127.781,14.513z"/>
	<path clip-path="url(#SVGID_2_)" fill="#010202" d="M145.28,17.451l0.087-4.449h18.022l0.114,4.449h-0.59
		c-0.648-3.833-1.94-3.833-4.216-3.833h-2.973v13.094c0,3.582,0,4.197,2.355,4.197h0.928v0.616h-9.294v-0.616h0.955
		c2.39,0,2.358-0.615,2.358-4.197V13.618h-3.873c-2.301,0-2.637,1.203-3.256,3.833H145.28z"/>
	<path clip-path="url(#SVGID_2_)" fill="#010202" d="M180.159,25.762l-0.397,5.764h-15.384v-0.616h0.365
		c2.413,0,2.413-0.615,2.413-4.197v-9.094c0-3.666-0.025-4-2.413-4v-0.616h13.31l0.421,4.617h-0.645c-0.9-3.945-2.246-4-5.391-4
		h-2.585v7.807h1.994c2.61,0,2.779-0.644,2.779-2.799h0.645v6.354h-0.645c0-2.8-0.619-2.941-2.754-2.941h-2.02v4.394
		c0,4.256,0.17,4.478,2.723,4.478h1.377c1.569,0,4.322,0,5.559-5.147H180.159z"/>
	<path clip-path="url(#SVGID_2_)" fill="#010202" d="M182.461,25.37h0.673c0.253,1.286,1.184,5.82,5.531,5.82
		c2.528,0,4.127-1.707,4.127-3.608c0-2.633-2.781-3.612-4.576-4.394c-2.862-1.261-5.614-2.491-5.614-5.935
		c0-2.407,1.824-4.589,4.912-4.589c2.443,0,3.621,1.231,4.295,1.959c0.618-0.755,0.678-1.286,0.731-1.624h0.591v4.842h-0.591
		c-0.841-3.357-3.062-4.504-4.939-4.504c-2.08,0-3.202,1.369-3.202,2.825c0,2.21,2.301,3.246,4.462,4.17
		c3.595,1.538,5.896,2.686,5.896,6.184c0,2.686-1.71,5.345-5.837,5.345c-2.529,0-4.212-1.287-5.113-2.322
		c-0.166,0.253-0.444,0.672-0.672,1.791h-0.673V25.37z"/>
	<path clip-path="url(#SVGID_2_)" fill="#A01735" d="M41.575,40.487c-0.974,0-1.875-0.306-2.616-0.827V3.413H22.526l-1.426-3.296
		c0,0,0.451,2.259-1.498,3.296H1.132v18.542v0.627v17.697c-0.435,0.137-0.897,0.211-1.376,0.211v0.628h0.002h1.375H5.53h14.472
		c0.015,0,0.03,0.001,0.043,0.001c0.015,0,0.027-0.001,0.044-0.001h18.646h0.224h2.616v-0.001V40.487z M28.708,39.027
		c1.277-0.657,2.471-1.455,3.555-2.373c0.448,0.402,0.731,0.985,0.731,1.635c0,1.215-0.988,2.2-2.207,2.2
		C29.83,40.489,29.013,39.878,28.708,39.027 M8.583,40.489c-1.22,0-2.206-0.985-2.206-2.2c0-0.822,0.454-1.538,1.123-1.915
		c0.996,0.88,2.087,1.656,3.254,2.314C10.564,39.713,9.665,40.489,8.583,40.489 M1.761,27.105c0.707,2.659,1.981,5.087,3.686,7.147
		l-0.541,1.248c-0.174-1.935-1.422-3.561-3.145-4.282V27.105z M19.729,7.06v0.002v14.447l-4.377-4.364L19.729,7.06z M20.36,8.525
		l3.914,9.08l-3.914,3.902V8.525z M19.284,21.954h-6.019l1.817-4.188L19.284,21.954z M24.542,18.226l1.607,3.728h-5.345
		L24.542,18.226z M30.557,21.954l-2.941-6.792l5.578-5.557c3.111,3.208,5.051,7.552,5.13,12.35H30.557z M38.324,22.581
		c-0.062,3.693-1.227,7.116-3.178,9.961l-4.315-9.961H38.324z M27.349,14.542l-4.453-10.28c3.799,0.593,7.208,2.352,9.852,4.897
		L27.349,14.542z M13.621,15.419L7.343,9.162c2.946-2.842,6.855-4.703,11.191-5.058L13.621,15.419z M13.352,16.04l-2.565,5.914
		H1.768c0.079-4.796,2.018-9.14,5.128-12.349L13.352,16.04z M12.403,23.945h5.51l-9.712,9.681L12.403,23.945z M5.729,33.602
		c-2.421-3.036-3.893-6.857-3.961-11.021h8.746L5.729,33.602z M27.01,23.945l3.641,8.448l-8.476-8.448H27.01z M37.036,35.964
		c0-1.23,0.495-2.342,1.292-3.157v6.317C37.529,38.31,37.036,37.194,37.036,35.964 M38.329,31.957
		c-1.06,0.854-1.773,2.113-1.902,3.544l-0.987-2.28c1.308-1.823,2.297-3.889,2.889-6.115V31.957z M33.639,9.159l4.689-4.674v12.94
		C37.49,14.269,35.85,11.437,33.639,9.159 M33.194,8.715c-2.285-2.204-5.127-3.838-8.294-4.674h12.983L33.194,8.715z M6.896,8.717
		L2.206,4.041H15.19C12.022,4.877,9.181,6.512,6.896,8.717 M6.449,9.162C4.24,11.439,2.6,14.269,1.761,17.426V4.488L6.449,9.162z
		 M8.177,36.129c0.133-0.025,0.269-0.038,0.407-0.038c1.11,0,2.027,0.816,2.183,1.88C9.85,37.432,8.984,36.813,8.177,36.129
		 M8.583,35.462c-0.339,0-0.665,0.059-0.967,0.169c-0.067-0.063-0.136-0.126-0.203-0.19l0.108-0.25l11.283-11.245h0.924v16.54
		c-3-0.05-5.826-0.822-8.309-2.148c0-0.016,0.001-0.031,0.001-0.048C11.421,36.729,10.151,35.462,8.583,35.462 M20.36,23.945h0.922
		l10.041,10.007l0.792,1.838c-0.395-0.21-0.847-0.328-1.327-0.328c-1.567,0-2.837,1.267-2.837,2.827c0,0.137,0.011,0.27,0.028,0.398
		c-2.312,1.113-4.893,1.753-7.618,1.798V23.945z M28.582,38.289c0-1.214,0.988-2.198,2.207-2.198c0.332,0,0.645,0.072,0.928,0.203
		c-0.966,0.799-2.016,1.499-3.133,2.089C28.582,38.352,28.582,38.321,28.582,38.289 M1.761,31.909
		c1.501,0.737,2.536,2.274,2.536,4.055c0,1.782-1.034,3.321-2.536,4.06V31.909z M10.367,40.489c0.466-0.376,0.81-0.894,0.962-1.488
		c1.214,0.63,2.507,1.131,3.858,1.488H10.367z M24.904,40.489c1.125-0.297,2.206-0.695,3.237-1.181
		c0.181,0.464,0.48,0.872,0.865,1.181H24.904z"/>
</g>
</svg>
